<mxfile host="app.diagrams.net" agent="Mozilla/5.0 (Windows NT 10.0; Win64; x64) AppleWebKit/537.36 (KHTML, like Gecko) Chrome/133.0.0.0 Safari/537.36 Edg/133.0.0.0" version="26.0.16">
  <diagram name="第 1 页" id="ourI1YcCHOoMs6YP5m4L">
    <mxGraphModel dx="736" dy="1246" grid="1" gridSize="10" guides="1" tooltips="1" connect="1" arrows="1" fold="1" page="1" pageScale="1" pageWidth="827" pageHeight="1169" math="0" shadow="0">
      <root>
        <mxCell id="0" />
        <mxCell id="1" parent="0" />
        <mxCell id="wW0475eGNuNr2B9IRAAF-134" value="" style="rounded=1;whiteSpace=wrap;html=1;fillColor=none;dashed=1;arcSize=10;" vertex="1" parent="1">
          <mxGeometry x="487.5" y="210" width="332.5" height="620" as="geometry" />
        </mxCell>
        <mxCell id="wW0475eGNuNr2B9IRAAF-133" value="" style="rounded=1;whiteSpace=wrap;html=1;fillColor=none;dashed=1;" vertex="1" parent="1">
          <mxGeometry x="210" y="210" width="250" height="600" as="geometry" />
        </mxCell>
        <mxCell id="wW0475eGNuNr2B9IRAAF-23" value="" style="rounded=1;whiteSpace=wrap;html=1;fillColor=none;dashed=1;" vertex="1" parent="1">
          <mxGeometry x="50" y="210" width="147.5" height="800" as="geometry" />
        </mxCell>
        <mxCell id="wW0475eGNuNr2B9IRAAF-55" style="edgeStyle=orthogonalEdgeStyle;rounded=0;orthogonalLoop=1;jettySize=auto;html=1;entryX=0;entryY=0.5;entryDx=0;entryDy=0;" edge="1" parent="1" source="wW0475eGNuNr2B9IRAAF-1" target="wW0475eGNuNr2B9IRAAF-24">
          <mxGeometry relative="1" as="geometry">
            <Array as="points">
              <mxPoint x="188" y="255" />
              <mxPoint x="188" y="327" />
            </Array>
          </mxGeometry>
        </mxCell>
        <mxCell id="wW0475eGNuNr2B9IRAAF-56" style="edgeStyle=orthogonalEdgeStyle;rounded=0;orthogonalLoop=1;jettySize=auto;html=1;entryX=0;entryY=0.5;entryDx=0;entryDy=0;" edge="1" parent="1" source="wW0475eGNuNr2B9IRAAF-1" target="wW0475eGNuNr2B9IRAAF-47">
          <mxGeometry relative="1" as="geometry">
            <Array as="points">
              <mxPoint x="320" y="255" />
              <mxPoint x="320" y="407" />
            </Array>
          </mxGeometry>
        </mxCell>
        <mxCell id="wW0475eGNuNr2B9IRAAF-1" value="C2PSA" style="rounded=0;whiteSpace=wrap;html=1;fontSize=16;" vertex="1" parent="1">
          <mxGeometry x="80" y="240" width="75" height="30" as="geometry" />
        </mxCell>
        <mxCell id="wW0475eGNuNr2B9IRAAF-21" value="" style="edgeStyle=orthogonalEdgeStyle;rounded=0;orthogonalLoop=1;jettySize=auto;html=1;" edge="1" parent="1" source="wW0475eGNuNr2B9IRAAF-2" target="wW0475eGNuNr2B9IRAAF-1">
          <mxGeometry relative="1" as="geometry" />
        </mxCell>
        <mxCell id="wW0475eGNuNr2B9IRAAF-2" value="FocalModulation" style="rounded=0;whiteSpace=wrap;html=1;fontSize=16;" vertex="1" parent="1">
          <mxGeometry x="54" y="312" width="125" height="30" as="geometry" />
        </mxCell>
        <mxCell id="wW0475eGNuNr2B9IRAAF-20" value="" style="edgeStyle=orthogonalEdgeStyle;rounded=0;orthogonalLoop=1;jettySize=auto;html=1;" edge="1" parent="1" source="wW0475eGNuNr2B9IRAAF-3" target="wW0475eGNuNr2B9IRAAF-2">
          <mxGeometry relative="1" as="geometry" />
        </mxCell>
        <mxCell id="wW0475eGNuNr2B9IRAAF-3" value="WTConv&lt;span style=&quot;font-size: 13.3333px;&quot;&gt;4&lt;/span&gt;" style="rounded=0;whiteSpace=wrap;html=1;fontSize=16;" vertex="1" parent="1">
          <mxGeometry x="80" y="384" width="75" height="30" as="geometry" />
        </mxCell>
        <mxCell id="wW0475eGNuNr2B9IRAAF-19" value="" style="edgeStyle=orthogonalEdgeStyle;rounded=0;orthogonalLoop=1;jettySize=auto;html=1;" edge="1" parent="1" source="wW0475eGNuNr2B9IRAAF-4" target="wW0475eGNuNr2B9IRAAF-3">
          <mxGeometry relative="1" as="geometry" />
        </mxCell>
        <mxCell id="wW0475eGNuNr2B9IRAAF-4" value="CBS" style="rounded=0;whiteSpace=wrap;html=1;fontSize=16;" vertex="1" parent="1">
          <mxGeometry x="80" y="456" width="75" height="30" as="geometry" />
        </mxCell>
        <mxCell id="wW0475eGNuNr2B9IRAAF-18" style="edgeStyle=orthogonalEdgeStyle;rounded=0;orthogonalLoop=1;jettySize=auto;html=1;exitX=0.5;exitY=0;exitDx=0;exitDy=0;" edge="1" parent="1" source="wW0475eGNuNr2B9IRAAF-5">
          <mxGeometry relative="1" as="geometry">
            <mxPoint x="118" y="490" as="targetPoint" />
          </mxGeometry>
        </mxCell>
        <mxCell id="wW0475eGNuNr2B9IRAAF-54" style="edgeStyle=orthogonalEdgeStyle;rounded=0;orthogonalLoop=1;jettySize=auto;html=1;entryX=0;entryY=0.75;entryDx=0;entryDy=0;" edge="1" parent="1" source="wW0475eGNuNr2B9IRAAF-5" target="wW0475eGNuNr2B9IRAAF-26">
          <mxGeometry relative="1" as="geometry" />
        </mxCell>
        <mxCell id="wW0475eGNuNr2B9IRAAF-5" value="WTConv&lt;span style=&quot;font-size: 13.3333px;&quot;&gt;3&lt;/span&gt;" style="rounded=0;whiteSpace=wrap;html=1;fontSize=16;" vertex="1" parent="1">
          <mxGeometry x="80" y="528" width="75" height="30" as="geometry" />
        </mxCell>
        <mxCell id="wW0475eGNuNr2B9IRAAF-17" style="edgeStyle=orthogonalEdgeStyle;rounded=0;orthogonalLoop=1;jettySize=auto;html=1;exitX=0.5;exitY=0;exitDx=0;exitDy=0;" edge="1" parent="1" source="wW0475eGNuNr2B9IRAAF-6" target="wW0475eGNuNr2B9IRAAF-5">
          <mxGeometry relative="1" as="geometry" />
        </mxCell>
        <mxCell id="wW0475eGNuNr2B9IRAAF-6" value="CBS" style="rounded=0;whiteSpace=wrap;html=1;fontSize=16;" vertex="1" parent="1">
          <mxGeometry x="80" y="600" width="75" height="30" as="geometry" />
        </mxCell>
        <mxCell id="wW0475eGNuNr2B9IRAAF-16" style="edgeStyle=orthogonalEdgeStyle;rounded=0;orthogonalLoop=1;jettySize=auto;html=1;exitX=0.5;exitY=0;exitDx=0;exitDy=0;entryX=0.5;entryY=1;entryDx=0;entryDy=0;" edge="1" parent="1" source="wW0475eGNuNr2B9IRAAF-7" target="wW0475eGNuNr2B9IRAAF-6">
          <mxGeometry relative="1" as="geometry" />
        </mxCell>
        <mxCell id="wW0475eGNuNr2B9IRAAF-53" style="edgeStyle=orthogonalEdgeStyle;rounded=0;orthogonalLoop=1;jettySize=auto;html=1;exitX=1;exitY=0.5;exitDx=0;exitDy=0;entryX=0;entryY=0.5;entryDx=0;entryDy=0;" edge="1" parent="1" source="wW0475eGNuNr2B9IRAAF-7" target="wW0475eGNuNr2B9IRAAF-36">
          <mxGeometry relative="1" as="geometry" />
        </mxCell>
        <mxCell id="wW0475eGNuNr2B9IRAAF-7" value="WTConv&lt;span style=&quot;font-size: 13.3333px;&quot;&gt;2&lt;/span&gt;" style="rounded=0;whiteSpace=wrap;html=1;fontSize=16;" vertex="1" parent="1">
          <mxGeometry x="80" y="672" width="75" height="30" as="geometry" />
        </mxCell>
        <mxCell id="wW0475eGNuNr2B9IRAAF-15" style="edgeStyle=orthogonalEdgeStyle;rounded=0;orthogonalLoop=1;jettySize=auto;html=1;exitX=0.5;exitY=0;exitDx=0;exitDy=0;entryX=0.5;entryY=1;entryDx=0;entryDy=0;" edge="1" parent="1" source="wW0475eGNuNr2B9IRAAF-8" target="wW0475eGNuNr2B9IRAAF-7">
          <mxGeometry relative="1" as="geometry" />
        </mxCell>
        <mxCell id="wW0475eGNuNr2B9IRAAF-8" value="CBS" style="rounded=0;whiteSpace=wrap;html=1;fontSize=16;" vertex="1" parent="1">
          <mxGeometry x="80" y="744" width="75" height="30" as="geometry" />
        </mxCell>
        <mxCell id="wW0475eGNuNr2B9IRAAF-14" style="edgeStyle=orthogonalEdgeStyle;rounded=0;orthogonalLoop=1;jettySize=auto;html=1;exitX=0.5;exitY=0;exitDx=0;exitDy=0;entryX=0.5;entryY=1;entryDx=0;entryDy=0;" edge="1" parent="1" source="wW0475eGNuNr2B9IRAAF-9" target="wW0475eGNuNr2B9IRAAF-8">
          <mxGeometry relative="1" as="geometry" />
        </mxCell>
        <mxCell id="wW0475eGNuNr2B9IRAAF-9" value="WTConv&lt;sub&gt;1&lt;/sub&gt;" style="rounded=0;whiteSpace=wrap;html=1;fontSize=16;" vertex="1" parent="1">
          <mxGeometry x="80" y="816" width="75" height="30" as="geometry" />
        </mxCell>
        <mxCell id="wW0475eGNuNr2B9IRAAF-13" style="edgeStyle=orthogonalEdgeStyle;rounded=0;orthogonalLoop=1;jettySize=auto;html=1;exitX=0.5;exitY=0;exitDx=0;exitDy=0;entryX=0.5;entryY=1;entryDx=0;entryDy=0;" edge="1" parent="1" source="wW0475eGNuNr2B9IRAAF-10" target="wW0475eGNuNr2B9IRAAF-9">
          <mxGeometry relative="1" as="geometry" />
        </mxCell>
        <mxCell id="wW0475eGNuNr2B9IRAAF-10" value="CBS" style="rounded=0;whiteSpace=wrap;html=1;fontSize=16;" vertex="1" parent="1">
          <mxGeometry x="80" y="888" width="75" height="30" as="geometry" />
        </mxCell>
        <mxCell id="wW0475eGNuNr2B9IRAAF-12" style="edgeStyle=orthogonalEdgeStyle;rounded=0;orthogonalLoop=1;jettySize=auto;html=1;exitX=0.5;exitY=0;exitDx=0;exitDy=0;entryX=0.5;entryY=1;entryDx=0;entryDy=0;" edge="1" parent="1" source="wW0475eGNuNr2B9IRAAF-11" target="wW0475eGNuNr2B9IRAAF-10">
          <mxGeometry relative="1" as="geometry" />
        </mxCell>
        <mxCell id="wW0475eGNuNr2B9IRAAF-11" value="CBS" style="rounded=0;whiteSpace=wrap;html=1;fontSize=16;" vertex="1" parent="1">
          <mxGeometry x="80" y="960" width="75" height="30" as="geometry" />
        </mxCell>
        <mxCell id="wW0475eGNuNr2B9IRAAF-24" value="ECUB" style="rounded=0;whiteSpace=wrap;html=1;fontSize=16;" vertex="1" parent="1">
          <mxGeometry x="220" y="312" width="75" height="30" as="geometry" />
        </mxCell>
        <mxCell id="wW0475eGNuNr2B9IRAAF-25" value="" style="edgeStyle=orthogonalEdgeStyle;rounded=0;orthogonalLoop=1;jettySize=auto;html=1;" edge="1" parent="1" source="wW0475eGNuNr2B9IRAAF-26" target="wW0475eGNuNr2B9IRAAF-24">
          <mxGeometry relative="1" as="geometry" />
        </mxCell>
        <mxCell id="wW0475eGNuNr2B9IRAAF-26" value="Concat" style="rounded=0;whiteSpace=wrap;html=1;fontSize=16;" vertex="1" parent="1">
          <mxGeometry x="220" y="420" width="75" height="30" as="geometry" />
        </mxCell>
        <mxCell id="wW0475eGNuNr2B9IRAAF-125" style="edgeStyle=orthogonalEdgeStyle;rounded=0;orthogonalLoop=1;jettySize=auto;html=1;entryX=0.5;entryY=1;entryDx=0;entryDy=0;" edge="1" parent="1" source="wW0475eGNuNr2B9IRAAF-28" target="wW0475eGNuNr2B9IRAAF-30">
          <mxGeometry relative="1" as="geometry" />
        </mxCell>
        <mxCell id="wW0475eGNuNr2B9IRAAF-28" value="CBS" style="rounded=0;whiteSpace=wrap;html=1;fontSize=16;" vertex="1" parent="1">
          <mxGeometry x="352" y="676" width="75" height="30" as="geometry" />
        </mxCell>
        <mxCell id="wW0475eGNuNr2B9IRAAF-120" value="" style="edgeStyle=orthogonalEdgeStyle;rounded=0;orthogonalLoop=1;jettySize=auto;html=1;" edge="1" parent="1" source="wW0475eGNuNr2B9IRAAF-30" target="wW0475eGNuNr2B9IRAAF-51">
          <mxGeometry relative="1" as="geometry" />
        </mxCell>
        <mxCell id="wW0475eGNuNr2B9IRAAF-30" value="Concat" style="rounded=0;whiteSpace=wrap;html=1;fontSize=16;" vertex="1" parent="1">
          <mxGeometry x="352" y="605" width="75" height="30" as="geometry" />
        </mxCell>
        <mxCell id="wW0475eGNuNr2B9IRAAF-31" style="edgeStyle=orthogonalEdgeStyle;rounded=0;orthogonalLoop=1;jettySize=auto;html=1;exitX=0.5;exitY=0;exitDx=0;exitDy=0;entryX=0.5;entryY=1;entryDx=0;entryDy=0;" edge="1" parent="1" source="wW0475eGNuNr2B9IRAAF-32" target="wW0475eGNuNr2B9IRAAF-26">
          <mxGeometry relative="1" as="geometry">
            <mxPoint x="258" y="562" as="targetPoint" />
          </mxGeometry>
        </mxCell>
        <mxCell id="wW0475eGNuNr2B9IRAAF-57" style="edgeStyle=orthogonalEdgeStyle;rounded=0;orthogonalLoop=1;jettySize=auto;html=1;entryX=0;entryY=0.5;entryDx=0;entryDy=0;" edge="1" parent="1" source="wW0475eGNuNr2B9IRAAF-32" target="wW0475eGNuNr2B9IRAAF-30">
          <mxGeometry relative="1" as="geometry" />
        </mxCell>
        <mxCell id="wW0475eGNuNr2B9IRAAF-32" value="C3K2" style="rounded=0;whiteSpace=wrap;html=1;fontSize=16;" vertex="1" parent="1">
          <mxGeometry x="220" y="528" width="75" height="30" as="geometry" />
        </mxCell>
        <mxCell id="wW0475eGNuNr2B9IRAAF-33" style="edgeStyle=orthogonalEdgeStyle;rounded=0;orthogonalLoop=1;jettySize=auto;html=1;exitX=0.5;exitY=0;exitDx=0;exitDy=0;" edge="1" parent="1" source="wW0475eGNuNr2B9IRAAF-34" target="wW0475eGNuNr2B9IRAAF-32">
          <mxGeometry relative="1" as="geometry" />
        </mxCell>
        <mxCell id="wW0475eGNuNr2B9IRAAF-34" value="ECUB" style="rounded=0;whiteSpace=wrap;html=1;fontSize=16;" vertex="1" parent="1">
          <mxGeometry x="220" y="636" width="75" height="30" as="geometry" />
        </mxCell>
        <mxCell id="wW0475eGNuNr2B9IRAAF-35" style="edgeStyle=orthogonalEdgeStyle;rounded=0;orthogonalLoop=1;jettySize=auto;html=1;exitX=0.5;exitY=0;exitDx=0;exitDy=0;entryX=0.5;entryY=1;entryDx=0;entryDy=0;" edge="1" parent="1" source="wW0475eGNuNr2B9IRAAF-36" target="wW0475eGNuNr2B9IRAAF-34">
          <mxGeometry relative="1" as="geometry" />
        </mxCell>
        <mxCell id="wW0475eGNuNr2B9IRAAF-60" style="edgeStyle=orthogonalEdgeStyle;rounded=0;orthogonalLoop=1;jettySize=auto;html=1;entryX=0;entryY=0.5;entryDx=0;entryDy=0;" edge="1" parent="1" source="wW0475eGNuNr2B9IRAAF-36" target="wW0475eGNuNr2B9IRAAF-52">
          <mxGeometry relative="1" as="geometry" />
        </mxCell>
        <mxCell id="wW0475eGNuNr2B9IRAAF-36" value="Concat" style="rounded=0;whiteSpace=wrap;html=1;fontSize=16;" vertex="1" parent="1">
          <mxGeometry x="220" y="744" width="75" height="30" as="geometry" />
        </mxCell>
        <mxCell id="wW0475eGNuNr2B9IRAAF-116" style="edgeStyle=orthogonalEdgeStyle;rounded=0;orthogonalLoop=1;jettySize=auto;html=1;entryX=0;entryY=0.75;entryDx=0;entryDy=0;" edge="1" parent="1" source="wW0475eGNuNr2B9IRAAF-45" target="wW0475eGNuNr2B9IRAAF-61">
          <mxGeometry relative="1" as="geometry" />
        </mxCell>
        <mxCell id="wW0475eGNuNr2B9IRAAF-117" style="edgeStyle=orthogonalEdgeStyle;rounded=0;orthogonalLoop=1;jettySize=auto;html=1;" edge="1" parent="1" source="wW0475eGNuNr2B9IRAAF-45" target="wW0475eGNuNr2B9IRAAF-92">
          <mxGeometry relative="1" as="geometry" />
        </mxCell>
        <mxCell id="wW0475eGNuNr2B9IRAAF-45" value="WTConv&lt;span style=&quot;font-size: 13.3333px;&quot;&gt;5&lt;/span&gt;" style="rounded=0;whiteSpace=wrap;html=1;fontSize=16;" vertex="1" parent="1">
          <mxGeometry x="352" y="320" width="75" height="30" as="geometry" />
        </mxCell>
        <mxCell id="wW0475eGNuNr2B9IRAAF-46" style="edgeStyle=orthogonalEdgeStyle;rounded=0;orthogonalLoop=1;jettySize=auto;html=1;exitX=0.5;exitY=0;exitDx=0;exitDy=0;entryX=0.5;entryY=1;entryDx=0;entryDy=0;" edge="1" parent="1" source="wW0475eGNuNr2B9IRAAF-47" target="wW0475eGNuNr2B9IRAAF-45">
          <mxGeometry relative="1" as="geometry" />
        </mxCell>
        <mxCell id="wW0475eGNuNr2B9IRAAF-47" value="Concat" style="rounded=0;whiteSpace=wrap;html=1;fontSize=16;" vertex="1" parent="1">
          <mxGeometry x="352" y="393" width="75" height="30" as="geometry" />
        </mxCell>
        <mxCell id="wW0475eGNuNr2B9IRAAF-48" style="edgeStyle=orthogonalEdgeStyle;rounded=0;orthogonalLoop=1;jettySize=auto;html=1;exitX=0.5;exitY=0;exitDx=0;exitDy=0;entryX=0.5;entryY=1;entryDx=0;entryDy=0;" edge="1" parent="1" source="wW0475eGNuNr2B9IRAAF-49" target="wW0475eGNuNr2B9IRAAF-47">
          <mxGeometry relative="1" as="geometry" />
        </mxCell>
        <mxCell id="wW0475eGNuNr2B9IRAAF-49" value="CBS" style="rounded=0;whiteSpace=wrap;html=1;fontSize=16;" vertex="1" parent="1">
          <mxGeometry x="352" y="464" width="75" height="30" as="geometry" />
        </mxCell>
        <mxCell id="wW0475eGNuNr2B9IRAAF-50" style="edgeStyle=orthogonalEdgeStyle;rounded=0;orthogonalLoop=1;jettySize=auto;html=1;exitX=0.5;exitY=0;exitDx=0;exitDy=0;entryX=0.5;entryY=1;entryDx=0;entryDy=0;" edge="1" parent="1" source="wW0475eGNuNr2B9IRAAF-51" target="wW0475eGNuNr2B9IRAAF-49">
          <mxGeometry relative="1" as="geometry" />
        </mxCell>
        <mxCell id="wW0475eGNuNr2B9IRAAF-126" style="edgeStyle=orthogonalEdgeStyle;rounded=0;orthogonalLoop=1;jettySize=auto;html=1;entryX=0;entryY=0.75;entryDx=0;entryDy=0;" edge="1" parent="1" source="wW0475eGNuNr2B9IRAAF-51" target="wW0475eGNuNr2B9IRAAF-97">
          <mxGeometry relative="1" as="geometry" />
        </mxCell>
        <mxCell id="wW0475eGNuNr2B9IRAAF-127" style="edgeStyle=orthogonalEdgeStyle;rounded=0;orthogonalLoop=1;jettySize=auto;html=1;entryX=0;entryY=0.75;entryDx=0;entryDy=0;" edge="1" parent="1" source="wW0475eGNuNr2B9IRAAF-51" target="wW0475eGNuNr2B9IRAAF-102">
          <mxGeometry relative="1" as="geometry" />
        </mxCell>
        <mxCell id="wW0475eGNuNr2B9IRAAF-51" value="WTConv&lt;span style=&quot;font-size: 13.3333px;&quot;&gt;6&lt;/span&gt;" style="rounded=0;whiteSpace=wrap;html=1;fontSize=16;" vertex="1" parent="1">
          <mxGeometry x="352" y="534" width="75" height="30" as="geometry" />
        </mxCell>
        <mxCell id="wW0475eGNuNr2B9IRAAF-124" style="edgeStyle=orthogonalEdgeStyle;rounded=0;orthogonalLoop=1;jettySize=auto;html=1;entryX=0.5;entryY=1;entryDx=0;entryDy=0;" edge="1" parent="1" source="wW0475eGNuNr2B9IRAAF-52" target="wW0475eGNuNr2B9IRAAF-28">
          <mxGeometry relative="1" as="geometry" />
        </mxCell>
        <mxCell id="wW0475eGNuNr2B9IRAAF-128" style="edgeStyle=orthogonalEdgeStyle;rounded=0;orthogonalLoop=1;jettySize=auto;html=1;entryX=0;entryY=0.5;entryDx=0;entryDy=0;" edge="1" parent="1" source="wW0475eGNuNr2B9IRAAF-52" target="wW0475eGNuNr2B9IRAAF-107">
          <mxGeometry relative="1" as="geometry" />
        </mxCell>
        <mxCell id="wW0475eGNuNr2B9IRAAF-129" style="edgeStyle=orthogonalEdgeStyle;rounded=0;orthogonalLoop=1;jettySize=auto;html=1;entryX=0;entryY=0.75;entryDx=0;entryDy=0;" edge="1" parent="1" source="wW0475eGNuNr2B9IRAAF-52" target="wW0475eGNuNr2B9IRAAF-112">
          <mxGeometry relative="1" as="geometry" />
        </mxCell>
        <mxCell id="wW0475eGNuNr2B9IRAAF-52" value="WTConv&lt;span style=&quot;font-size: 13.3333px;&quot;&gt;7&lt;/span&gt;" style="rounded=0;whiteSpace=wrap;html=1;fontSize=16;" vertex="1" parent="1">
          <mxGeometry x="352" y="744" width="75" height="30" as="geometry" />
        </mxCell>
        <mxCell id="wW0475eGNuNr2B9IRAAF-64" value="" style="edgeStyle=orthogonalEdgeStyle;rounded=0;orthogonalLoop=1;jettySize=auto;html=1;" edge="1" parent="1" source="wW0475eGNuNr2B9IRAAF-61" target="wW0475eGNuNr2B9IRAAF-63">
          <mxGeometry relative="1" as="geometry" />
        </mxCell>
        <mxCell id="wW0475eGNuNr2B9IRAAF-61" value="CBS" style="rounded=0;whiteSpace=wrap;html=1;fontSize=16;" vertex="1" parent="1">
          <mxGeometry x="504" y="290" width="75" height="30" as="geometry" />
        </mxCell>
        <mxCell id="wW0475eGNuNr2B9IRAAF-62" value="Conv2d" style="rounded=0;whiteSpace=wrap;html=1;fontSize=16;" vertex="1" parent="1">
          <mxGeometry x="734" y="290" width="75" height="30" as="geometry" />
        </mxCell>
        <mxCell id="wW0475eGNuNr2B9IRAAF-65" value="" style="edgeStyle=orthogonalEdgeStyle;rounded=0;orthogonalLoop=1;jettySize=auto;html=1;" edge="1" parent="1" source="wW0475eGNuNr2B9IRAAF-63" target="wW0475eGNuNr2B9IRAAF-62">
          <mxGeometry relative="1" as="geometry" />
        </mxCell>
        <mxCell id="wW0475eGNuNr2B9IRAAF-63" value="CBS" style="rounded=0;whiteSpace=wrap;html=1;fontSize=16;" vertex="1" parent="1">
          <mxGeometry x="624" y="290" width="75" height="30" as="geometry" />
        </mxCell>
        <mxCell id="wW0475eGNuNr2B9IRAAF-91" value="" style="edgeStyle=orthogonalEdgeStyle;rounded=0;orthogonalLoop=1;jettySize=auto;html=1;" edge="1" parent="1" source="wW0475eGNuNr2B9IRAAF-92" target="wW0475eGNuNr2B9IRAAF-95">
          <mxGeometry relative="1" as="geometry" />
        </mxCell>
        <mxCell id="wW0475eGNuNr2B9IRAAF-92" value="CBS" style="rounded=0;whiteSpace=wrap;html=1;fontSize=16;" vertex="1" parent="1">
          <mxGeometry x="504" y="342" width="75" height="30" as="geometry" />
        </mxCell>
        <mxCell id="wW0475eGNuNr2B9IRAAF-93" value="Conv2d" style="rounded=0;whiteSpace=wrap;html=1;fontSize=16;" vertex="1" parent="1">
          <mxGeometry x="734" y="342" width="75" height="30" as="geometry" />
        </mxCell>
        <mxCell id="wW0475eGNuNr2B9IRAAF-94" value="" style="edgeStyle=orthogonalEdgeStyle;rounded=0;orthogonalLoop=1;jettySize=auto;html=1;" edge="1" parent="1" source="wW0475eGNuNr2B9IRAAF-95" target="wW0475eGNuNr2B9IRAAF-93">
          <mxGeometry relative="1" as="geometry" />
        </mxCell>
        <mxCell id="wW0475eGNuNr2B9IRAAF-95" value="CBS" style="rounded=0;whiteSpace=wrap;html=1;fontSize=16;" vertex="1" parent="1">
          <mxGeometry x="624" y="342" width="75" height="30" as="geometry" />
        </mxCell>
        <mxCell id="wW0475eGNuNr2B9IRAAF-96" value="" style="edgeStyle=orthogonalEdgeStyle;rounded=0;orthogonalLoop=1;jettySize=auto;html=1;" edge="1" parent="1" source="wW0475eGNuNr2B9IRAAF-97" target="wW0475eGNuNr2B9IRAAF-100">
          <mxGeometry relative="1" as="geometry" />
        </mxCell>
        <mxCell id="wW0475eGNuNr2B9IRAAF-97" value="CBS" style="rounded=0;whiteSpace=wrap;html=1;fontSize=16;" vertex="1" parent="1">
          <mxGeometry x="504" y="502" width="75" height="30" as="geometry" />
        </mxCell>
        <mxCell id="wW0475eGNuNr2B9IRAAF-98" value="Conv2d" style="rounded=0;whiteSpace=wrap;html=1;fontSize=16;" vertex="1" parent="1">
          <mxGeometry x="734" y="502" width="75" height="30" as="geometry" />
        </mxCell>
        <mxCell id="wW0475eGNuNr2B9IRAAF-99" value="" style="edgeStyle=orthogonalEdgeStyle;rounded=0;orthogonalLoop=1;jettySize=auto;html=1;" edge="1" parent="1" source="wW0475eGNuNr2B9IRAAF-100" target="wW0475eGNuNr2B9IRAAF-98">
          <mxGeometry relative="1" as="geometry" />
        </mxCell>
        <mxCell id="wW0475eGNuNr2B9IRAAF-100" value="CBS" style="rounded=0;whiteSpace=wrap;html=1;fontSize=16;" vertex="1" parent="1">
          <mxGeometry x="624" y="502" width="75" height="30" as="geometry" />
        </mxCell>
        <mxCell id="wW0475eGNuNr2B9IRAAF-101" value="" style="edgeStyle=orthogonalEdgeStyle;rounded=0;orthogonalLoop=1;jettySize=auto;html=1;" edge="1" parent="1" source="wW0475eGNuNr2B9IRAAF-102" target="wW0475eGNuNr2B9IRAAF-105">
          <mxGeometry relative="1" as="geometry" />
        </mxCell>
        <mxCell id="wW0475eGNuNr2B9IRAAF-102" value="DSC" style="rounded=0;whiteSpace=wrap;html=1;fontSize=16;" vertex="1" parent="1">
          <mxGeometry x="504" y="562" width="75" height="30" as="geometry" />
        </mxCell>
        <mxCell id="wW0475eGNuNr2B9IRAAF-103" value="Conv2d" style="rounded=0;whiteSpace=wrap;html=1;fontSize=16;" vertex="1" parent="1">
          <mxGeometry x="734" y="562" width="75" height="30" as="geometry" />
        </mxCell>
        <mxCell id="wW0475eGNuNr2B9IRAAF-104" value="" style="edgeStyle=orthogonalEdgeStyle;rounded=0;orthogonalLoop=1;jettySize=auto;html=1;" edge="1" parent="1" source="wW0475eGNuNr2B9IRAAF-105" target="wW0475eGNuNr2B9IRAAF-103">
          <mxGeometry relative="1" as="geometry" />
        </mxCell>
        <mxCell id="wW0475eGNuNr2B9IRAAF-105" value="DSC" style="rounded=0;whiteSpace=wrap;html=1;fontSize=16;" vertex="1" parent="1">
          <mxGeometry x="624" y="562" width="75" height="30" as="geometry" />
        </mxCell>
        <mxCell id="wW0475eGNuNr2B9IRAAF-106" value="" style="edgeStyle=orthogonalEdgeStyle;rounded=0;orthogonalLoop=1;jettySize=auto;html=1;" edge="1" parent="1" source="wW0475eGNuNr2B9IRAAF-107" target="wW0475eGNuNr2B9IRAAF-110">
          <mxGeometry relative="1" as="geometry" />
        </mxCell>
        <mxCell id="wW0475eGNuNr2B9IRAAF-107" value="CBS" style="rounded=0;whiteSpace=wrap;html=1;fontSize=16;" vertex="1" parent="1">
          <mxGeometry x="504" y="710" width="75" height="30" as="geometry" />
        </mxCell>
        <mxCell id="wW0475eGNuNr2B9IRAAF-108" value="Conv2d" style="rounded=0;whiteSpace=wrap;html=1;fontSize=16;" vertex="1" parent="1">
          <mxGeometry x="734" y="710" width="75" height="30" as="geometry" />
        </mxCell>
        <mxCell id="wW0475eGNuNr2B9IRAAF-109" value="" style="edgeStyle=orthogonalEdgeStyle;rounded=0;orthogonalLoop=1;jettySize=auto;html=1;" edge="1" parent="1" source="wW0475eGNuNr2B9IRAAF-110" target="wW0475eGNuNr2B9IRAAF-108">
          <mxGeometry relative="1" as="geometry" />
        </mxCell>
        <mxCell id="wW0475eGNuNr2B9IRAAF-110" value="CBS" style="rounded=0;whiteSpace=wrap;html=1;fontSize=16;" vertex="1" parent="1">
          <mxGeometry x="624" y="710" width="75" height="30" as="geometry" />
        </mxCell>
        <mxCell id="wW0475eGNuNr2B9IRAAF-111" value="" style="edgeStyle=orthogonalEdgeStyle;rounded=0;orthogonalLoop=1;jettySize=auto;html=1;" edge="1" parent="1" source="wW0475eGNuNr2B9IRAAF-112" target="wW0475eGNuNr2B9IRAAF-115">
          <mxGeometry relative="1" as="geometry" />
        </mxCell>
        <mxCell id="wW0475eGNuNr2B9IRAAF-112" value="DSC" style="rounded=0;whiteSpace=wrap;html=1;fontSize=16;" vertex="1" parent="1">
          <mxGeometry x="504" y="766" width="75" height="30" as="geometry" />
        </mxCell>
        <mxCell id="wW0475eGNuNr2B9IRAAF-113" value="Conv2d" style="rounded=0;whiteSpace=wrap;html=1;fontSize=16;" vertex="1" parent="1">
          <mxGeometry x="734" y="766" width="75" height="30" as="geometry" />
        </mxCell>
        <mxCell id="wW0475eGNuNr2B9IRAAF-114" value="" style="edgeStyle=orthogonalEdgeStyle;rounded=0;orthogonalLoop=1;jettySize=auto;html=1;" edge="1" parent="1" source="wW0475eGNuNr2B9IRAAF-115" target="wW0475eGNuNr2B9IRAAF-113">
          <mxGeometry relative="1" as="geometry" />
        </mxCell>
        <mxCell id="wW0475eGNuNr2B9IRAAF-115" value="DSC" style="rounded=0;whiteSpace=wrap;html=1;fontSize=16;" vertex="1" parent="1">
          <mxGeometry x="624" y="766" width="75" height="30" as="geometry" />
        </mxCell>
        <mxCell id="wW0475eGNuNr2B9IRAAF-130" value="" style="rounded=0;whiteSpace=wrap;html=1;fillColor=#60a917;fontColor=#ffffff;strokeColor=#2D7600;" vertex="1" parent="1">
          <mxGeometry x="75.5" y="1030" width="64" height="64" as="geometry" />
        </mxCell>
        <mxCell id="wW0475eGNuNr2B9IRAAF-131" value="" style="rounded=0;whiteSpace=wrap;html=1;fillColor=#e51400;fontColor=#ffffff;strokeColor=#B20000;" vertex="1" parent="1">
          <mxGeometry x="85.5" y="1040" width="64" height="64" as="geometry" />
        </mxCell>
        <mxCell id="wW0475eGNuNr2B9IRAAF-132" value="" style="rounded=0;whiteSpace=wrap;html=1;fillColor=#1ba1e2;fontColor=#ffffff;strokeColor=#006EAF;" vertex="1" parent="1">
          <mxGeometry x="95.5" y="1050" width="64" height="64" as="geometry" />
        </mxCell>
        <mxCell id="wW0475eGNuNr2B9IRAAF-135" value="Backbone" style="text;html=1;align=center;verticalAlign=middle;resizable=0;points=[];autosize=1;strokeColor=none;fillColor=none;fontSize=16;" vertex="1" parent="1">
          <mxGeometry x="72.5" y="190" width="90" height="30" as="geometry" />
        </mxCell>
        <mxCell id="wW0475eGNuNr2B9IRAAF-136" value="Neck" style="text;html=1;align=center;verticalAlign=middle;resizable=0;points=[];autosize=1;strokeColor=none;fillColor=none;fontSize=16;" vertex="1" parent="1">
          <mxGeometry x="290" y="190" width="60" height="30" as="geometry" />
        </mxCell>
        <mxCell id="wW0475eGNuNr2B9IRAAF-137" value="&lt;font style=&quot;font-size: 16px;&quot;&gt;Head&lt;/font&gt;" style="text;html=1;align=center;verticalAlign=middle;resizable=0;points=[];autosize=1;strokeColor=none;fillColor=none;" vertex="1" parent="1">
          <mxGeometry x="631.5" y="190" width="60" height="30" as="geometry" />
        </mxCell>
      </root>
    </mxGraphModel>
  </diagram>
</mxfile>
